Léon Morin, Prêtre was one of the first films to take a serious look at life in France under the Nazi occupation. Writer-director Jean-Pierre Melville uses his priest protagonist (Jean-Paul Belmondo) to chronicle the lives of the residents of the small occupied town, from those who fight in the Resistance to those who simply want to survive. The central story explores the sexual tension between priest and parishioner, with an unusually frank approach for the early 1960s. Melville's detailed, observant portrait imbues the film with a unique credibility, and Belmondo gives a sexy, charismatic performance that enhances the film's thematic contrasts. Léon Morin is also uncommon for the early 1960s in its passionate argument against anti-Semitism. Few films before or after have examined spirituality and religion in so convincing a manner. 

   General
      Complete name : Leon Morin Pretre.avi
      Format : AVI
      Format/Info : Audio Video Interleave
      File size : 1.33 GiB
      Duration : 1h 52mn
      Overall bit rate : 1 702 Kbps
      Writing application : VirtualDubMod 1.5.4.1 (build 2178/release)
      Writing library : VirtualDubMod build 2178/release
   Video #0
      ID : 0
      Format : MPEG-4 Visual
      Format profile : AdvancedSimple@L5
      Format settings, BVOP : Yes
      Format settings, QPel : No
      Format settings, GMC : No warppoints
      Format settings, Matrix : Custom
      Codec ID : XVID
      Codec ID/Hint : XviD
      Duration : 1h 52mn
      Bit rate : 1 503 Kbps
      Width : 640 pixels
      Height : 384 pixels
      Display aspect ratio : 1.667
      Frame rate : 25.000 fps
      Resolution : 24 bits
      Colorimetry : 4:2:0
      Scan type : Progressive
      Bits/(Pixel*Frame) : 0.245
      Stream size : 1.18 GiB (88%)
      Writing library : XviD 1.1.2 (UTC 2006-11-01)
   Audio #1
      ID : 1
      Format : AC-3
      Format/Info : Audio Coding 3
      Codec ID : 2000
      Duration : 1h 52mn
      Bit rate mode : Constant
      Bit rate : 192 Kbps
      Channel(s) : 1 channel
      Channel positions : C
      Sampling rate : 48.0 KHz
      Video delay : 11ms
      Stream size : 154 MiB (11%)
      Alignment : Split accross interleaves
      Interleave, duration : 96 ms (2.40 video frames)
      Interleave, preload duration : 96 ms
 
http://www.imdb.com/title/tt0055082/

French audio; English, Spanish and Portuguese subtitles

From KG by crasus, whom we thank